<svg xmlns="http://www.w3.org/2000/svg" viewBox="0 0 860 192" role="img" aria-labelledby="title desc">
  <title id="title">Free-Stuff-Near-You — Mint Tilt $0 logo, v5</title>
  <desc id="desc">The matched two-point tag rotates eight degrees as one form, preserving equal lobe dimensions and spacing. A soft mint body carries a smaller complementary-green dollar beside a larger deep-green zero. Paired with the exact Free-Stuff-Near-You name in deep green. Original, unadopted concept with editable text and transparent surroundings.</desc>
  <g transform="translate(20 16)"><g transform="rotate(-8 80 80)">
      <path fill="#C4E3D1" fill-rule="evenodd" d="M36 20H88Q96 20 101 25L135 59Q140 64 135 69L105 99Q102 102 99 105L69 135Q64 140 59 135L25 101Q20 96 20 88V36Q20 20 36 20ZM112 58a6 6 0 1 0 0 12 6 6 0 0 0 0-12ZM64 106a6 6 0 1 0 0 12 6 6 0 0 0 0-12Z"/>
      <g font-family="Arial, Helvetica, sans-serif" font-weight="700" text-anchor="middle">
        <text x="46" y="80" fill="#527D64" font-size="27">$</text>
        <text x="72" y="80" fill="#214E3B" font-size="42">0</text>
      </g>
    </g></g>
  <text x="212" y="106" fill="#214E3B" font-family="Avenir Next, Trebuchet MS, Arial, sans-serif" font-size="50" font-weight="700" letter-spacing="-1.2">Free-Stuff-Near-You</text>
</svg>
