<svg xmlns="http://www.w3.org/2000/svg" viewBox="0 0 860 192" role="img" aria-labelledby="title desc">
  <title id="title">Free-Stuff-Near-You — Mint Tilt FSNY logo, v3</title>
  <desc id="desc">FSNY provides a compact lettermark variation of the chosen mint tag. The face and initials share the gentle tilt while the attached local base stays centered. Paired with the exact Free-Stuff-Near-You name in deep green. Original, unadopted concept with editable text and transparent surroundings.</desc>
  <g transform="translate(20 8)"><path fill="#83B397" fill-rule="evenodd" d="M62 106H98v7c0 15-12 31-18 37-6-6-18-22-18-37v-7ZM80 115a6 6 0 1 0 0 12 6 6 0 0 0 0-12Z"/>
    <g transform="rotate(-8 80 64)">
      <g transform="translate(16 0)"><path fill="#C4E3D1" fill-rule="evenodd" d="M24 16h53c4 0 8 2 11 5l31 31c7 7 7 17 0 24l-31 31c-3 3-7 5-11 5H24c-7 0-12-5-12-12V28c0-7 5-12 12-12ZM95 58a6 6 0 1 0 0 12 6 6 0 0 0 0-12Z"/></g>
      <text x="68" y="73" fill="#214E3B" font-family="Arial, Helvetica, sans-serif" font-size="22" font-weight="700" text-anchor="middle" letter-spacing="0.3">FSNY</text>
    </g></g>
  <text x="212" y="106" fill="#214E3B" font-family="Avenir Next, Trebuchet MS, Arial, sans-serif" font-size="50" font-weight="700" letter-spacing="-1.2">Free-Stuff-Near-You</text>
</svg>
