<svg xmlns="http://www.w3.org/2000/svg" viewBox="0 0 160 160" role="img" aria-labelledby="title desc">
  <title id="title">Free-Stuff-Near-You — Deep Sage Plain mark, v6</title>
  <desc id="desc">The selected soft-rounded local price tag in deep sage green, with no internal lettering. The entire mark and any internal typography share one minus-eight-degree rotation. Right and bottom points and openings remain identical reflected motifs. Original, unadopted vector concept with transparent surroundings and editable text.</desc>
  <g transform="rotate(-8 80 80)">
      <path fill="#6FA889" fill-rule="evenodd" d="M50 20H88Q96 20 101 25L135 59Q140 64 135 69L105 99Q102 102 99 105L69 135Q64 140 59 135L25 101Q20 96 20 88V50Q20 20 50 20ZM112 58a6 6 0 1 0 0 12 6 6 0 0 0 0-12ZM64 106a6 6 0 1 0 0 12 6 6 0 0 0 0-12Z"/>
      
    </g>
</svg>
